<svg width="288" height="288" viewBox="0 0 288 288" fill="none" xmlns="http://www.w3.org/2000/svg">
<path d="M144 0C223.5 0 288 64.5 288 144C288 223.5 223.5 288 144 288C64.5 288 0 223.5 0 144C0 64.5 64.5 0 144 0Z" fill="#70D44B"/>
<path d="M144 58.8C151.6 58.8 158.5 63.1 161.9 69.9L218.1 182.4C223 192.3 219 204.3 209.1 209.2C206.3 210.6 203.3 211.3 200.2 211.3H87.8C76.8 211.3 67.8 202.3 67.8 191.3C67.8 188.2 68.5 185.1 69.9 182.4L126.1 69.9C129.5 63 136.4 58.7 144 58.8ZM144 45C131.2 45 119.5 52.2 113.8 63.7L57.6 176.2C49.3 192.9 56 213.1 72.7 221.5C77.4 223.8 82.6 225.1 87.8 225.1H200.3C218.9 225.1 234.1 210 234.1 191.4C234.1 186.2 232.9 181 230.5 176.3L174.2 63.7C168.5 52.2 156.8 45 144 45Z" fill="white"/>
</svg>
