<?xml version="1.0" standalone="no"?>
<!DOCTYPE svg PUBLIC "-//W3C//DTD SVG 20010904//EN"
 "http://www.w3.org/TR/2001/REC-SVG-20010904/DTD/svg10.dtd">
<svg version="1.0" xmlns="http://www.w3.org/2000/svg"
 width="1000.000000pt" height="1000.000000pt" viewBox="0 0 1000.000000 1000.000000"
 preserveAspectRatio="xMidYMid meet">
<metadata>
Created by potrace 1.14, written by Peter Selinger 2001-2017
</metadata>
<g transform="translate(0.000000,1000.000000) scale(0.100000,-0.100000)"
fill="#000000" stroke="none">
<path d="M5098 9256 c-1 -2 -97 -6 -213 -10 -115 -3 -230 -8 -255 -11 -25 -2
-72 -7 -105 -10 -33 -3 -87 -10 -120 -15 -33 -5 -78 -12 -100 -15 -41 -6 -71
-11 -115 -21 -35 -7 -71 -14 -98 -19 -12 -2 -30 -6 -40 -9 -9 -3 -28 -7 -42
-10 -14 -3 -43 -10 -65 -16 -22 -6 -48 -13 -58 -15 -10 -2 -27 -7 -37 -10 -10
-3 -27 -8 -37 -10 -10 -2 -38 -11 -62 -19 -24 -9 -47 -13 -52 -10 -5 3 -9 1
-9 -5 0 -5 -15 -13 -32 -17 -43 -10 -39 -9 -73 -23 -16 -7 -38 -13 -47 -14
-10 -1 -18 -5 -18 -9 0 -4 -7 -8 -16 -8 -23 0 -382 -157 -434 -190 -21 -13
-79 -39 -87 -39 -3 1 -9 -3 -12 -8 -13 -19 -122 -73 -134 -67 -7 4 -9 3 -4 -1
7 -8 -73 -65 -92 -65 -5 0 -11 -7 -15 -15 -3 -8 -10 -15 -15 -15 -6 0 -36 -18
-67 -40 -31 -22 -61 -37 -67 -33 -6 3 -7 1 -3 -5 4 -7 4 -12 -1 -12 -4 0 -21
-11 -37 -25 -16 -14 -35 -25 -42 -25 -7 0 -14 -3 -16 -8 -1 -4 -23 -23 -48
-42 -50 -39 -69 -54 -108 -88 -15 -12 -33 -20 -40 -17 -7 3 -11 1 -8 -3 7 -12
-5 -26 -53 -60 -24 -18 -40 -32 -36 -32 4 0 -5 -10 -21 -22 -16 -13 -78 -70
-138 -128 -59 -58 -113 -104 -118 -102 -5 1 -7 -2 -3 -8 4 -6 -15 -33 -42 -60
-26 -27 -61 -65 -76 -84 -16 -18 -36 -42 -45 -52 -9 -11 -35 -42 -57 -69 -22
-28 -44 -55 -50 -61 -5 -6 -17 -22 -25 -34 -8 -12 -21 -28 -28 -36 -6 -7 -12
-17 -12 -23 0 -5 -10 -17 -22 -25 -12 -9 -18 -16 -13 -16 6 0 2 -5 -7 -11 -10
-5 -18 -15 -18 -20 0 -9 -54 -93 -70 -109 -10 -10 -31 -45 -36 -62 -4 -10 -10
-18 -15 -18 -5 0 -9 -5 -9 -10 0 -6 -16 -36 -35 -66 -19 -30 -35 -59 -35 -65
0 -5 -10 -14 -23 -19 -12 -5 -16 -9 -9 -9 12 -1 -22 -74 -50 -108 -6 -7 -7
-13 -4 -13 4 0 -2 -13 -13 -29 -12 -16 -21 -31 -21 -34 0 -3 -20 -48 -44 -99
-59 -126 -80 -172 -81 -178 -10 -38 -18 -59 -24 -56 -4 3 -8 -4 -8 -15 -2 -17
-28 -95 -50 -149 -3 -8 -7 -21 -9 -28 -1 -8 -6 -21 -10 -30 -9 -22 -11 -29
-13 -48 0 -8 -5 -13 -9 -10 -5 3 -8 -5 -7 -17 3 -30 -5 -48 -18 -40 -6 3 -7 1
-3 -5 4 -6 -7 -65 -23 -129 -34 -133 -51 -204 -57 -248 -3 -16 -8 -37 -11 -45
-3 -8 -7 -32 -9 -53 -2 -20 -6 -41 -9 -46 -3 -5 -8 -36 -11 -68 -3 -32 -8 -65
-11 -73 -3 -8 -5 -32 -4 -52 2 -21 -1 -38 -6 -38 -4 0 -9 -26 -11 -58 -6 -129
-9 -758 -3 -767 3 -5 6 -17 7 -25 8 -65 18 -162 20 -195 1 -22 3 -40 4 -40 2
0 7 -24 15 -70 4 -22 10 -58 15 -80 4 -22 8 -47 9 -55 4 -43 8 -67 13 -76 6
-9 33 -131 33 -149 0 -5 3 -12 6 -15 7 -7 61 -200 63 -227 0 -11 4 -19 8 -17
6 4 22 -46 23 -71 0 -5 3 -12 7 -15 4 -3 9 -17 10 -30 2 -14 6 -27 9 -30 3 -3
20 -43 39 -90 46 -117 54 -137 127 -290 36 -74 65 -139 66 -145 1 -5 10 -18
19 -29 10 -11 18 -23 18 -27 0 -5 24 -49 54 -99 30 -49 52 -90 50 -90 -3 0 5
-10 16 -22 11 -12 18 -28 16 -35 -3 -7 -1 -12 5 -10 5 1 17 -11 27 -28 9 -16
25 -38 34 -49 10 -11 18 -24 18 -29 0 -4 7 -15 15 -24 8 -8 12 -20 8 -26 -3
-7 -3 -9 2 -5 4 4 21 -12 38 -35 17 -23 34 -46 39 -52 5 -5 19 -25 32 -43 14
-19 44 -56 68 -84 23 -28 42 -53 42 -57 -1 -3 7 -12 18 -19 10 -7 15 -18 12
-24 -4 -6 -2 -8 3 -5 6 4 16 0 23 -8 7 -8 10 -15 7 -15 -3 0 14 -19 38 -42 24
-23 41 -46 39 -50 -3 -4 1 -8 8 -8 7 -1 27 -18 43 -40 17 -21 40 -44 52 -51
12 -6 20 -16 17 -21 -3 -4 -2 -8 3 -8 4 0 50 -39 100 -88 51 -48 107 -98 125
-112 17 -14 47 -40 66 -57 19 -18 38 -33 41 -33 3 0 17 -10 31 -22 14 -13 52
-43 85 -68 33 -25 62 -47 65 -50 3 -3 42 -30 88 -60 45 -29 82 -58 82 -63 0
-4 4 -6 9 -3 5 3 19 -4 33 -17 13 -12 26 -22 29 -22 12 0 79 -40 79 -47 0 -5
6 -8 14 -8 8 0 22 -7 30 -16 9 -8 16 -13 16 -10 0 4 18 -5 40 -19 22 -14 44
-25 50 -25 5 0 10 -5 10 -11 0 -5 4 -8 9 -4 6 3 14 -3 20 -12 6 -10 11 -14 11
-10 0 4 10 2 23 -5 12 -7 24 -13 27 -13 3 -1 32 -15 65 -32 51 -26 107 -51
230 -103 11 -4 40 -17 65 -28 25 -10 63 -25 85 -32 22 -7 46 -18 54 -24 8 -6
16 -10 18 -8 11 8 33 0 27 -10 -4 -7 -3 -8 4 -4 7 4 46 -4 88 -18 42 -14 83
-26 90 -26 8 0 14 -4 14 -9 0 -5 6 -9 13 -8 33 1 58 -4 54 -11 -3 -4 9 -7 27
-8 18 0 41 -4 52 -9 10 -4 27 -9 37 -10 9 -2 18 -3 20 -5 1 -1 11 -3 21 -5 11
-2 31 -7 45 -11 14 -4 32 -6 40 -5 8 1 10 -3 6 -11 -6 -10 -5 -10 5 -1 9 8 20
9 39 1 14 -5 40 -11 56 -13 17 -2 44 -5 60 -8 17 -3 50 -9 75 -12 25 -4 52 -9
60 -10 8 -1 49 -6 90 -10 41 -4 89 -9 105 -11 17 -2 56 -4 88 -5 52 -1 56 -3
45 -18 -12 -14 -11 -15 5 -2 12 10 40 14 80 13 34 0 63 -1 65 -2 9 -5 202 -1
210 4 6 3 13 2 17 -3 4 -7 15 -7 30 -1 18 7 25 6 25 -3 0 -7 3 -8 8 -2 4 6 32
11 62 13 30 1 78 4 105 7 28 3 73 7 100 10 28 3 66 7 85 10 19 3 53 7 75 10
22 3 51 7 65 10 46 9 85 16 110 20 36 5 167 35 227 52 29 8 58 11 64 7 8 -5 9
-3 4 6 -6 10 -1 12 18 8 15 -3 24 -1 21 4 -3 5 0 8 7 7 8 -1 21 0 29 3 8 3 65
22 125 41 61 20 119 39 129 43 15 6 17 4 11 -7 -4 -8 2 -4 14 9 12 12 28 22
35 22 13 0 113 40 194 76 18 8 38 12 45 8 6 -4 9 -4 5 1 -4 4 52 36 124 72
110 53 133 61 147 51 14 -11 14 -11 3 4 -14 18 0 34 20 22 6 -4 8 -3 4 4 -3 6
3 13 14 17 11 4 53 27 93 51 39 24 78 42 85 39 7 -2 11 -1 8 4 -3 5 12 20 34
35 22 14 40 23 40 19 0 -5 4 -3 8 4 14 22 144 103 154 97 6 -4 8 -2 5 3 -4 6
42 47 101 91 59 44 131 102 161 129 29 26 56 48 58 48 3 0 64 57 137 127 72
71 134 128 139 128 4 0 7 4 7 8 0 8 35 48 150 173 19 21 51 61 70 89 19 27 41
50 48 50 6 0 11 3 10 8 -4 10 58 92 66 87 3 -3 4 -2 1 1 -2 4 10 28 29 53 18
25 54 76 79 113 25 36 49 63 53 60 4 -4 4 -1 0 6 -5 8 0 22 12 35 11 12 21 27
23 32 12 31 72 125 81 125 5 0 6 5 3 11 -4 5 -1 18 7 27 8 9 25 40 39 67 13
28 27 52 32 53 4 2 7 7 7 12 0 4 24 59 54 121 55 116 114 254 122 284 1 6 10
28 20 50 10 22 19 45 20 52 1 7 18 61 37 120 45 136 75 240 81 276 8 48 17 67
28 61 7 -5 8 -2 2 7 -11 18 -14 39 -5 39 4 0 7 8 8 18 0 17 11 76 19 113 10
46 12 57 19 99 3 25 9 59 11 75 11 64 16 101 17 125 1 14 6 28 12 32 6 5 5 8
-3 8 -7 0 -11 4 -8 9 3 4 8 44 11 87 3 43 8 104 10 134 6 67 5 339 0 435 -3
39 -6 106 -9 150 -2 44 -7 87 -10 95 -3 8 -7 44 -10 80 -3 36 -10 91 -16 122
-6 31 -13 71 -15 87 -11 71 -15 89 -30 156 -9 39 -18 77 -20 85 -10 46 -19 83
-40 155 -13 44 -26 91 -29 105 -3 14 -24 77 -46 140 -23 63 -42 120 -44 125
-1 6 -8 20 -14 33 -7 12 -10 27 -7 32 3 6 3 10 -2 10 -8 0 -12 7 -54 110 -13
30 -30 66 -38 80 -9 13 -15 25 -14 27 3 3 -89 195 -97 203 -5 5 -16 24 -57 99
-14 25 -30 51 -35 58 -5 7 -6 18 -2 24 4 7 3 9 -3 6 -9 -5 -48 51 -54 78 -1 6
-9 15 -17 21 -8 6 -12 16 -8 23 4 6 3 10 -3 9 -13 -4 -113 141 -105 153 3 5 1
8 -4 7 -12 -4 -128 152 -124 166 2 6 1 8 -3 4 -8 -8 -17 0 -65 62 -19 25 -44
54 -55 66 -11 11 -49 54 -85 94 -36 40 -73 80 -84 89 -35 30 -71 73 -68 83 1
5 -2 7 -6 4 -12 -7 -118 95 -114 108 2 6 0 8 -3 4 -6 -6 -144 103 -203 159 -7
7 -16 13 -20 13 -4 0 -24 16 -44 35 -20 19 -41 35 -47 35 -5 0 -17 10 -26 23
-8 12 -16 20 -18 18 -1 -3 -53 29 -114 71 -62 41 -110 78 -105 82 4 4 2 6 -3
5 -16 -5 -55 11 -55 22 0 6 -4 7 -10 4 -5 -3 -10 -1 -10 4 0 6 -6 11 -13 11
-7 0 -22 8 -33 18 -11 9 -26 18 -34 20 -8 2 -17 7 -20 11 -3 4 -29 18 -57 32
-29 14 -49 29 -45 33 4 4 2 6 -3 4 -14 -4 -96 33 -90 41 2 4 -4 7 -13 8 -9 0
-80 29 -158 64 -156 71 -161 73 -289 119 -49 17 -97 34 -105 37 -8 4 -17 7
-20 7 -51 12 -140 43 -140 49 0 4 -3 6 -8 3 -4 -2 -59 9 -122 25 -128 32 -121
31 -245 54 -130 25 -143 27 -285 44 -116 14 -172 19 -228 20 -31 1 -41 4 -36
14 5 9 4 9 -5 1 -11 -10 -96 -10 -128 1 -6 2 -13 2 -15 1z"/>
</g>
</svg>
