<?xml version="1.0" standalone="no"?>
<!DOCTYPE svg PUBLIC "-//W3C//DTD SVG 20010904//EN"
 "http://www.w3.org/TR/2001/REC-SVG-20010904/DTD/svg10.dtd">
<svg version="1.0" xmlns="http://www.w3.org/2000/svg"
 width="700.000000pt" height="700.000000pt" viewBox="0 0 700.000000 700.000000"
 preserveAspectRatio="xMidYMid meet">
<metadata>
Created by potrace 1.14, written by Peter Selinger 2001-2017
</metadata>
<g transform="translate(0.000000,700.000000) scale(0.100000,-0.100000)"
fill="#000000" stroke="none">
<path d="M3278 6995 c-1 -1 -41 -5 -88 -9 -47 -4 -96 -8 -110 -10 -14 -2 -46
-7 -71 -10 -56 -8 -88 -13 -159 -27 -30 -6 -64 -12 -75 -14 -17 -3 -88 -20
-120 -29 -5 -1 -26 -6 -45 -10 -45 -10 -199 -56 -225 -67 -11 -5 -56 -22 -100
-38 -44 -16 -91 -34 -105 -39 -14 -5 -28 -10 -33 -11 -4 0 -34 -14 -67 -31
-33 -17 -60 -27 -60 -23 0 5 -4 3 -8 -3 -4 -6 -34 -24 -67 -39 -77 -36 -289
-157 -293 -167 -2 -4 -9 -8 -16 -8 -7 0 -22 -9 -34 -20 -12 -12 -22 -18 -22
-15 0 3 -28 -15 -63 -40 -34 -25 -73 -53 -86 -62 -172 -124 -398 -329 -536
-488 -27 -31 -57 -64 -66 -73 -71 -74 -293 -388 -355 -502 -10 -19 -21 -37
-24 -40 -5 -5 -144 -282 -146 -290 -1 -7 -19 -51 -43 -103 -19 -43 -81 -210
-86 -231 -1 -6 -5 -19 -9 -28 -4 -9 -9 -25 -11 -35 -2 -10 -4 -18 -5 -18 -1 0
-3 -7 -5 -15 -2 -8 -11 -40 -20 -70 -8 -30 -17 -68 -20 -84 -3 -16 -8 -33 -11
-37 -3 -5 -7 -21 -9 -36 -2 -16 -10 -59 -18 -98 -25 -118 -39 -214 -54 -365
-14 -155 -6 -671 11 -721 3 -8 8 -39 10 -69 3 -30 8 -66 11 -80 3 -14 8 -43
10 -65 3 -22 8 -48 11 -57 3 -9 6 -25 8 -35 25 -128 95 -378 126 -448 5 -11
12 -31 15 -45 23 -85 224 -508 261 -551 8 -8 14 -19 14 -23 0 -4 13 -27 30
-51 16 -24 30 -46 30 -50 0 -3 4 -11 10 -18 5 -7 46 -64 91 -127 173 -245 377
-465 619 -667 102 -84 305 -233 320 -233 5 0 10 -4 10 -10 0 -5 5 -10 11 -10
6 0 30 -14 54 -30 24 -17 47 -30 51 -30 4 0 15 -6 23 -14 20 -17 290 -156 351
-180 25 -10 61 -24 80 -33 19 -8 44 -19 55 -24 39 -17 158 -59 179 -64 11 -2
40 -11 64 -20 24 -8 53 -17 65 -19 12 -3 23 -5 25 -7 1 -1 5 -2 10 -3 4 -1 16
-5 27 -9 11 -3 31 -8 45 -11 14 -2 57 -11 95 -20 39 -10 81 -20 95 -23 14 -3
35 -7 46 -9 12 -1 39 -5 60 -9 22 -3 57 -8 79 -11 22 -3 51 -7 65 -10 146 -25
683 -25 842 1 13 2 46 7 73 10 74 11 87 13 120 19 17 4 46 9 65 12 19 3 62 12
95 21 33 8 71 17 85 19 14 3 34 8 45 11 11 4 22 8 25 8 83 20 282 88 395 135
17 7 35 14 40 15 37 9 390 190 413 212 7 7 20 13 28 13 8 0 14 5 14 10 0 6 4
10 9 10 16 0 212 134 321 219 209 163 418 368 580 571 71 89 220 298 220 309
0 5 7 16 15 24 28 28 245 436 245 461 0 2 9 24 20 50 12 25 20 47 19 48 -1 2
3 13 10 26 10 19 73 199 101 287 15 48 44 167 56 225 3 14 10 45 15 70 6 25
12 59 15 75 2 17 6 40 8 52 3 11 7 43 11 70 3 26 9 64 12 83 11 75 14 134 17
365 3 219 -1 318 -19 467 -4 29 -8 64 -10 78 -2 14 -6 41 -10 60 -8 41 -14 75
-19 110 -11 71 -81 342 -96 371 -6 10 -9 19 -6 19 6 0 -69 211 -89 249 -8 17
-16 33 -16 36 -1 21 -111 251 -178 370 -56 101 -190 309 -202 313 -5 2 -9 8
-9 13 0 10 -122 168 -172 224 -105 116 -134 148 -200 215 -92 93 -174 165
-314 279 -6 5 -49 36 -95 70 -46 33 -89 65 -96 71 -7 5 -15 10 -19 10 -3 0
-23 12 -43 28 -20 15 -47 33 -61 41 -14 8 -61 35 -105 61 -44 25 -95 53 -112
61 -18 7 -33 17 -33 21 0 5 -5 8 -10 8 -6 0 -43 15 -83 34 -40 19 -101 46
-137 60 -36 15 -73 31 -82 36 -10 6 -22 10 -27 10 -5 0 -26 8 -47 17 -22 9
-41 17 -44 17 -11 2 -96 29 -115 37 -44 19 -342 93 -415 103 -48 7 -105 16
-128 21 -13 2 -51 7 -85 11 -34 3 -75 8 -92 11 -35 5 -542 13 -547 8z"/>
</g>
</svg>
