<svg width="258" height="258" viewBox="0 0 258 258" fill="none" xmlns="http://www.w3.org/2000/svg">
<path d="M129 257C199.692 257 257 199.692 257 129C257 58.3075 199.692 1 129 1C58.3076 1 1 58.3075 1 129C1 199.692 58.3076 257 129 257Z" fill="black" stroke="black" stroke-width="1.2373" stroke-miterlimit="11.3386"/>
<path d="M58.3882 57.8039C52.9912 63.4708 48.5386 68.2382 48.4936 68.3282C48.4487 68.4631 53.306 73.2305 59.2877 78.8974C65.2695 84.6093 70.4866 89.6016 70.8464 89.9164L71.5211 90.546L70.3067 92.5699C59.6475 110.2 57.4438 131.429 64.1451 150.948C65.4044 154.636 67.5632 159.358 69.4072 162.462C70.3067 163.991 70.7115 164.98 70.6215 165.16C70.5316 165.34 65.0896 171.097 58.5232 177.978C51.9568 184.814 46.6047 190.526 46.5147 190.616C46.4698 190.751 64.8647 208.517 66.6187 209.956L67.2934 210.54L77.6827 199.701C83.3946 193.72 88.7466 188.098 89.5562 187.243L91.0854 185.714L92.5246 186.614C99.8556 191.291 108.446 194.529 117.936 196.238C122.703 197.093 131.788 197.318 136.87 196.688C146.675 195.564 156.39 192.28 164.35 187.468L166.419 186.209L168.623 188.368C173.435 193.045 191.425 210.136 191.605 210.226C191.785 210.316 211.529 189.672 211.484 189.402C211.44 189.267 197.902 176.269 189.626 168.488L186.883 165.88L188.142 163.811C198.711 146.226 200.915 124.907 194.079 105.253C193.09 102.375 190.076 95.8981 188.322 92.9297L187.468 91.4455L199.026 79.3472C205.368 72.7358 210.54 67.2038 210.495 67.0689C210.315 66.6191 190.076 47.5046 189.806 47.5046C189.626 47.5046 184.544 52.6767 178.473 59.0632C172.401 65.4048 167.364 70.6219 167.229 70.6669C167.139 70.7119 166.554 70.442 166.014 70.0373C164.485 69.0028 160.617 66.889 158.459 65.8995C151.892 62.8862 145.775 61.0422 138.669 60.0077C134.981 59.468 123.917 59.3781 120.499 59.8728C112.314 61.0422 105.612 63.0661 98.7761 66.4842C96.7972 67.4287 94.5035 68.688 93.604 69.2277L91.9849 70.2172L90.1409 68.4181C89.1514 67.4287 84.6539 63.201 80.2013 58.9283C75.7487 54.7006 71.2062 50.383 70.1268 49.3036L68.1479 47.3696L58.3882 57.8039ZM133.902 87.1279C141.053 87.9824 147.44 90.4111 153.331 94.5488C156.345 96.6627 160.842 101.16 162.956 104.174C174.964 121.174 172.671 144.292 157.559 158.459C144.651 170.512 125.986 173.211 110.29 165.205C98.956 159.403 90.9504 148.789 88.3868 136.061C87.5773 132.013 87.5773 124.457 88.3868 120.455C89.1514 116.497 90.1858 113.663 92.1198 109.706C99.8556 94.1441 116.631 85.059 133.902 87.1279Z" fill="white"/>
</svg>
